<svg width="461" height="453" viewBox="0 0 461 453" xmlns="http://www.w3.org/2000/svg"><path d="M254.676093,255.802239 C269.035497,255.802239 280.676093,267.442835 280.676093,281.802239 C280.676093,282.543398 280.644402,283.284217 280.581106,284.022668 L274.458746,355.4502 C272.502528,378.272742 253.406227,395.802239 230.5,395.802239 C207.593773,395.802239 188.497472,378.272742 186.541254,355.4502 L180.418894,284.022668 C179.192585,269.715725 189.796534,257.123535 204.103477,255.897226 C204.841928,255.83393 205.582748,255.802239 206.323907,255.802239 L254.676093,255.802239 Z M336,61 C336,99.6666667 341.666667,129 353,149 C364.333333,169 394.666667,187.333333 444,204 L444,204 L444.049058,239.801548 L395,267.802239 L260,203.802239 L287,61 Z M174,61 L201,203.802239 L66,267.802239 L17,239.802239 L17,204 C66.3333333,187.333333 96.6666667,169 108,149 C119.333333,129 125,99.6666667 125,61 L174,61 Z" fill="#222" fill-rule="evenodd"/></svg>